<?xml version="1.0" encoding="utf-8"?>
<!-- Generator: Adobe Illustrator 23.0.3, SVG Export Plug-In . SVG Version: 6.00 Build 0)  -->
<svg version="1.1" id="Layer_1" xmlns="http://www.w3.org/2000/svg" xmlns:xlink="http://www.w3.org/1999/xlink" x="0px" y="0px"
	 viewBox="0 0 1200 1200" enable-background="new 0 0 1200 1200" xml:space="preserve">
<g>
	<g>
		<path fill="#90BF45" d="M685.507,984.757H497.874c-200.076,0-363.775-154.509-363.775-343.353v-0.001
			c0-188.844,163.699-343.353,363.775-343.353h187.632c200.076,0,363.775,154.509,363.775,343.353v0.001
			C1049.282,830.248,885.583,984.757,685.507,984.757z"/>
		<path fill="#FFF8A1" d="M989.453,829.334c5.572-32.642,1.726-66.455-15.981-99.208c-47.866-88.54-157.198-118.424-248.925-136.278
			c-99.908-19.446-203.73-21.965-303.085,2.519c-69.643,17.162-134.92,52.804-189.068,99.849
			c-23.3,20.243-47.906,44.257-59.074,73.746c-2.389,6.307-3.678,12.321-4.103,18.098
			c58.55,116.005,184.086,196.697,328.656,196.697h187.632C812.213,984.757,924.263,922.746,989.453,829.334z"/>
	</g>
	<g>
		<circle fill="#90BF45" cx="201.76" cy="424.309" r="148.063"/>
		<circle fill="#526821" cx="201.76" cy="424.309" r="125.088"/>
		<circle fill="#FFF8A1" cx="201.76" cy="424.309" r="115.408"/>
		<circle fill="#072D33" cx="201.76" cy="425.16" r="100.836"/>
		<circle fill="#FFFFFF" cx="166.659" cy="411.757" r="35.101"/>
		<circle fill="#FFFFFF" cx="221.066" cy="438.509" r="13.349"/>
	</g>
	<g>
		<circle fill="#90BF45" cx="981.621" cy="424.309" r="148.063"/>
		<circle fill="#526821" cx="981.621" cy="424.309" r="125.088"/>
		<circle fill="#FFF8A1" cx="981.621" cy="424.309" r="115.408"/>
		<circle fill="#072D33" cx="981.621" cy="424.309" r="100.836"/>
		<circle fill="#FFFFFF" cx="1019.913" cy="411.757" r="35.101"/>
		<circle fill="#FFFFFF" cx="968.272" cy="438.509" r="13.349"/>
	</g>
	<g>
		<path fill="#FF558A" d="M473.746,415.958c-1.425,3.192-3.242,5.32-3.689,8.969c-0.405,3.301-0.246,6.345,0.046,9.659
			c0.424,4.816,3.81,8.951,8.951,8.951c4.37,0,9.557-4.121,8.951-8.951c-0.475-3.788-0.773-7.516-2.082-11.127
			c-0.72-1.985-1.507-3.491-2.828-5.132c-0.41-0.509-2.691-2.947-2.268-2.37C479.222,413.768,475.133,412.851,473.746,415.958
			L473.746,415.958z"/>
	</g>
	<g>
		<path fill="#FF558A" d="M666.135,414.266c-0.943,4.635-1.641,8.425-1.431,13.233c0.21,4.805-0.622,9.894,0.605,14.545
			c1.805,6.843,12.648,9.025,15.955,2.085c2.71-5.687,2.21-11.712,1.255-17.824c-0.979-6.265-3.397-10.132-8.061-14.236
			C671.85,409.774,666.931,410.352,666.135,414.266L666.135,414.266z"/>
	</g>
	<g>
		<path fill="#072D33" d="M52.835,309.536c14.884,9.322,37.442-5.181,49.373-13.945c18.293-13.438,30.522-30.399,45.423-47.028
			c13.461-15.021-4.76-43.299-22.95-29.744C113.831,226.903,34.115,297.811,52.835,309.536L52.835,309.536z"/>
	</g>
	<g>
		<path fill="#072D33" d="M1147.545,311.203c-18.762-27.008-37.278-53.753-58.21-79.183c-15.826-19.226-43.043,8.265-27.341,27.341
			c19.769,24.016,40.566,47.951,64.027,68.449C1137.009,337.41,1156.965,324.763,1147.545,311.203L1147.545,311.203z"/>
	</g>
	<g>
		<path fill="#072D33" d="M512.434,522.74c28.559,5.623,57.903-3.988,86.682,1.62c34.623,6.746,49.168-42.964,14.702-53.329
			c-33.585-10.1-75.634-12.683-107.61,4.073C487.079,485.128,490.492,518.42,512.434,522.74L512.434,522.74z"/>
	</g>
</g>
</svg>
